<svg width="64" height="63" viewBox="0 0 64 63" fill="none" xmlns="http://www.w3.org/2000/svg">
<path d="M61.5463 43.5046L44.6599 26.7603L46.534 17.6736C47.0176 17.8594 47.5318 17.9566 48.0508 17.9602H48.0636C50.4482 17.9879 52.404 16.1077 52.4323 13.7604C52.4606 11.4131 50.5503 9.4878 48.1658 9.45997C45.7812 9.43228 43.8254 11.3126 43.7971 13.6598C43.7911 14.1621 43.8755 14.6614 44.0466 15.1347L34.1266 16.3264L17.9452 0.315C17.7467 0.115631 17.4757 0.00223125 17.1921 0C16.9121 0.00144375 16.644 0.111169 16.4455 0.30555L13.4204 3.26655C13.004 3.67657 13.004 4.34122 13.4204 4.75125L15.0481 6.37665C8.74201 17.7913 10.7903 31.9267 20.0871 41.1506C20.1724 41.2309 20.2713 41.2958 20.3793 41.3427C20.3121 41.698 20.2771 42.0585 20.2748 42.42V54.6H7.47481C4.53081 54.6034 2.14495 56.952 2.14148 59.85V61.95C2.14148 62.5299 2.61908 63 3.20815 63H52.2748C52.8639 63 53.3415 62.5299 53.3415 61.95V59.85C53.338 56.952 50.9522 54.6034 48.0082 54.6H35.2082V49.2019C37.2134 49.6159 39.2564 49.827 41.3052 49.8319C46.2215 49.8267 51.0595 48.6202 55.3852 46.3207L57.0215 47.9409C57.22 48.1403 57.491 48.2537 57.7746 48.2559C58.0546 48.2545 58.3227 48.1447 58.5212 47.9503L61.5463 44.9893C61.9627 44.5793 61.9627 43.9147 61.5463 43.5046ZM46.5596 12.2713C47.395 11.4534 48.7458 11.4571 49.5766 12.2794C50.4075 13.1016 50.4038 14.4313 49.5684 15.2491C49.1686 15.6407 48.6275 15.8604 48.0635 15.8602H48.0571C46.879 15.8542 45.9287 14.9092 45.9348 13.7494C45.9378 13.1942 46.1639 12.6629 46.5638 12.2713H46.5596V12.2713ZM44.0487 19.1709L42.8519 24.97L40.501 22.6422L44.0487 19.1709ZM42.837 17.3953L38.997 21.1533L36.0263 18.2133L42.837 17.3953ZM48.0082 56.7C49.7755 56.7 51.2082 58.1103 51.2082 59.85V60.9H4.27481V59.85C4.27481 58.1103 5.70748 56.7 7.47481 56.7H48.0082ZM33.0748 52.5V54.6H22.4081V52.5H33.0748ZM22.4081 50.4V42.42C22.4081 39.8727 24.8007 37.8 27.7415 37.8C30.6823 37.8 33.0748 39.8727 33.0748 42.42V50.4H22.4081ZM35.2082 47.061V42.42C35.2082 38.7145 31.8588 35.7 27.7415 35.7C25.0793 35.6598 22.59 36.9937 21.1793 39.2164C13.0639 30.8024 11.2364 18.2587 16.6221 7.93866L53.8258 44.7709C48.081 47.6477 41.4955 48.4576 35.2082 47.061ZM57.7863 45.7149L56.2834 44.227L17.1815 5.5041L15.6721 4.0152L17.1815 2.5347L33.0513 18.2448C33.0588 18.2448 33.0631 18.2584 33.0706 18.2637L59.2999 44.2344L57.7863 45.7149Z" fill="#2E2F42"/>
<path d="M27.7511 39.9H27.7415C25.9742 39.8973 24.5394 41.3055 24.5367 43.0452C24.534 44.785 25.9646 46.1973 27.7319 46.2H27.7415C29.5088 46.2026 30.9436 44.7944 30.9463 43.0547C30.9489 41.315 29.5184 39.9026 27.7511 39.9ZM28.4978 43.7944C28.297 43.991 28.0248 44.101 27.7415 44.1C27.1524 44.097 26.6774 43.6245 26.6804 43.0446C26.6819 42.767 26.795 42.5013 26.9948 42.3055C27.1934 42.1111 27.4615 42.0014 27.7415 42C28.3306 42.003 28.8056 42.4755 28.8026 43.0553C28.8011 43.3329 28.688 43.5986 28.4882 43.7944H28.4978Z" fill="#4D5AE5"/>
</svg>
